<?xml version="1.0" encoding="UTF-8" standalone="no"?>
<!-- Created with Inkscape (http://www.inkscape.org/) -->

<svg
   width="1080"
   height="1080"
   viewBox="0 0 285.74999 285.75"
   version="1.1"
   id="svg1"
   xml:space="preserve"
   xmlns:xlink="http://www.w3.org/1999/xlink"
   xmlns="http://www.w3.org/2000/svg"
   xmlns:svg="http://www.w3.org/2000/svg"><defs
     id="defs1"><linearGradient
       id="linearGradient20"><stop
         style="stop-color:#1e3a8a;stop-opacity:1;"
         offset="0"
         id="stop20" /><stop
         style="stop-color:#04355d;stop-opacity:1;"
         offset="1"
         id="stop21" /></linearGradient><linearGradient
       id="linearGradient16"><stop
         style="stop-color:#1e3a8a;stop-opacity:1;"
         offset="0"
         id="stop16" /><stop
         style="stop-color:#04355d;stop-opacity:1;"
         offset="1"
         id="stop17" /></linearGradient><linearGradient
       id="linearGradient87"><stop
         style="stop-color:#1e3a8a;stop-opacity:1;"
         offset="0"
         id="stop86" /><stop
         style="stop-color:#04355d;stop-opacity:1;"
         offset="1"
         id="stop87" /></linearGradient><linearGradient
       xlink:href="#linearGradient87"
       id="linearGradient119"
       gradientUnits="userSpaceOnUse"
       gradientTransform="translate(887.25002,1.2018799e-5)"
       x1="-2.4999999e-06"
       y1="142.875"
       x2="285.75"
       y2="142.875" /><linearGradient
       xlink:href="#linearGradient16"
       id="linearGradient17"
       x1="930.92236"
       y1="142.875"
       x2="1129.3278"
       y2="142.875"
       gradientUnits="userSpaceOnUse" /><filter
       style="color-interpolation-filters:sRGB"
       id="filter134"
       x="-0.17007872"
       y="-0.17007872"
       width="1.3401574"
       height="1.3968504"><feFlood
         result="flood"
         in="SourceGraphic"
         flood-opacity="0.450980"
         flood-color="rgb(0,0,0)"
         id="feFlood133" /><feGaussianBlur
         result="blur"
         in="SourceGraphic"
         stdDeviation="15.000000"
         id="feGaussianBlur133" /><feOffset
         result="offset"
         in="blur"
         dx="0.000000"
         dy="12.000000"
         id="feOffset133" /><feComposite
         result="comp1"
         operator="in"
         in="flood"
         in2="offset"
         id="feComposite133" /><feComposite
         result="comp2"
         operator="over"
         in="SourceGraphic"
         in2="comp1"
         id="feComposite134" /></filter><linearGradient
       xlink:href="#linearGradient20"
       id="linearGradient21"
       x1="-1.7541809"
       y1="179.06529"
       x2="183.45415"
       y2="179.06529"
       gradientUnits="userSpaceOnUse" /><linearGradient
       xlink:href="#linearGradient87"
       id="linearGradient22"
       gradientUnits="userSpaceOnUse"
       gradientTransform="translate(880.61939,-6.614602)"
       x1="-2.4999999e-06"
       y1="142.875"
       x2="285.75"
       y2="142.875" /></defs><g
     id="layer1"
     transform="translate(-887.24721,-293.16136)"><g
       id="g119"
       transform="translate(-0.00280586,293.16134)"
       style="display:inline"><g
         id="g1"
         style="display:inline"><rect
           style="display:none;fill:#ffffff;fill-opacity:1;fill-rule:nonzero;stroke:none;stroke-width:8.89288"
           id="rect109"
           width="285.75"
           height="285.75"
           x="887.25"
           y="-2.5000002e-06"
           rx="1.1328812" /><path
           id="path109"
           style="display:inline;fill:url(#linearGradient17);stroke-width:4.70387"
           d="m 932.5627,45.776291 c -2.18992,2.198101 -2.18436,5.754983 0,7.946528 0,0 48.73758,35.558514 58.00079,57.826791 9.26321,22.26836 9.30442,40.47699 0.0937,62.8063 -9.20974,22.3293 -57.97918,58.15303 -57.97918,58.15303 -2.19,2.1982 -2.18435,5.75508 0,7.94671 2.19838,2.18986 5.75515,2.18452 7.947,-0.0187 0,0 35.67752,-48.87613 57.97918,-58.15304 22.30171,-9.2769 40.43811,-9.32002 62.80631,-0.0937 22.3682,9.22572 58.3308,58.15529 58.3308,58.15529 2.1975,2.19004 5.7542,2.1847 7.9461,-0.0187 2.1899,-2.19811 2.1842,-5.75509 0,-7.94662 0,0 -49.0376,-35.8153 -58.3298,-58.15538 -9.2933,-22.34 -9.3064,-40.47146 -0.094,-62.8062 9.2116,-22.334651 58.0036,-58.177972 58.0036,-58.177972 2.188,-2.19848 2.1824,-5.754055 0,-7.945124 -2.1974,-2.189295 -5.7533,-2.184601 -7.9452,0.0079 0,0 -35.6973,48.899009 -58.0036,58.178066 -22.3072,9.27906 -40.5102,9.29039 -62.80626,0.0937 -22.29601,-9.196186 -58.0008,-57.826801 -58.0008,-57.826801 -2.19838,-2.189939 -5.75515,-2.184601 -7.947,0.0079 z" /></g><g
         id="g14"
         style="display:none"><rect
           style="display:inline;fill:url(#linearGradient119);fill-opacity:1;fill-rule:nonzero;stroke:none;stroke-width:8.89288"
           id="rect4"
           width="285.75"
           height="285.75"
           x="887.25"
           y="-2.5000002e-06"
           rx="1.1328812" /><path
           id="path14"
           style="display:inline;fill:#ffffff;fill-opacity:1;stroke-width:4.70387"
           d="m 932.5627,45.776291 c -2.18992,2.198101 -2.18436,5.754983 0,7.946528 0,0 48.73758,35.558514 58.00079,57.826791 9.26321,22.26836 9.30442,40.47699 0.0937,62.8063 -9.20974,22.3293 -57.97918,58.15303 -57.97918,58.15303 -2.19,2.1982 -2.18435,5.75508 0,7.94671 2.19838,2.18986 5.75515,2.18452 7.947,-0.0187 0,0 35.67752,-48.87613 57.97918,-58.15304 22.30171,-9.2769 40.43811,-9.32002 62.80631,-0.0937 22.3682,9.22572 58.3308,58.15529 58.3308,58.15529 2.1975,2.19004 5.7542,2.1847 7.9461,-0.0187 2.1899,-2.19811 2.1842,-5.75509 0,-7.94662 0,0 -49.0376,-35.8153 -58.3298,-58.15538 -9.2933,-22.34 -9.3064,-40.47146 -0.094,-62.8062 9.2116,-22.334651 58.0036,-58.177972 58.0036,-58.177972 2.188,-2.19848 2.1824,-5.754055 0,-7.945124 -2.1974,-2.189295 -5.7533,-2.184601 -7.9452,0.0079 0,0 -35.6973,48.899009 -58.0036,58.178066 -22.3072,9.27906 -40.5102,9.29039 -62.80626,0.0937 -22.29601,-9.196186 -58.0008,-57.826801 -58.0008,-57.826801 -2.19838,-2.189939 -5.75515,-2.184601 -7.947,0.0079 z" /></g><g
         id="g15"
         style="display:none"
         transform="translate(6.6306503,6.6146153)"><rect
           style="display:none;fill:url(#linearGradient22);fill-opacity:1;fill-rule:nonzero;stroke:none;stroke-width:8.89288"
           id="rect6"
           width="285.75"
           height="285.75"
           x="880.61938"
           y="-6.6146164"
           rx="1.1328812" /><g
           id="g185"
           style="display:inline"
           transform="translate(932.64438,-42.804903)"><circle
             style="font-variation-settings:'opsz' 32, 'wght' 300;display:none;mix-blend-mode:normal;fill:#ffffff;fill-opacity:1;stroke:none;stroke-width:15.9212;stroke-linejoin:miter;stroke-miterlimit:100;stroke-dasharray:none;stroke-opacity:1;paint-order:stroke fill markers;filter:url(#filter134)"
             id="circle181"
             cx="90.849983"
             cy="179.06529"
             r="105.83334" /><circle
             style="font-variation-settings:'opsz' 32, 'wght' 300;display:inline;fill:#e6e6e6;fill-opacity:1;stroke:none;stroke-width:16.105;stroke-linejoin:miter;stroke-miterlimit:100;stroke-dasharray:none;stroke-opacity:1;paint-order:stroke fill markers"
             id="circle199"
             cx="90.849983"
             cy="179.06529"
             r="95.25" /><circle
             style="font-variation-settings:'opsz' 32, 'wght' 300;display:inline;fill:url(#linearGradient21);stroke:none;stroke-width:9.26041;stroke-linejoin:miter;stroke-miterlimit:100;stroke-dasharray:none;stroke-opacity:1;paint-order:stroke fill markers"
             id="circle185"
             cx="90.849983"
             cy="179.06529"
             r="92.604164" /></g><path
           id="path15"
           style="display:inline;fill:#ffffff;fill-opacity:1;stroke-width:2.50893"
           d="m 971.4527,84.474218 c -1.16816,1.172327 -1.1652,3.069337 0,4.238169 0,0 25.99772,18.964613 30.9389,30.841083 4.9413,11.87651 4.9632,21.58782 0.05,33.49684 -4.9127,11.909 -30.92738,31.01507 -30.92738,31.01507 -1.16819,1.17239 -1.16517,3.06939 0,4.23826 1.17268,1.16794 3.06993,1.16508 4.23911,-0.01 0,0 19.03116,-26.06737 30.92737,-31.01507 11.8963,-4.9477 21.5706,-4.9707 33.5024,-0.05 11.9316,4.92041 31.1149,31.01628 31.1149,31.01628 1.1721,1.16803 3.0693,1.16519 4.2385,-0.01 1.1682,-1.17232 1.1651,-3.06938 0,-4.23821 0,0 -26.1577,-19.10156 -31.1144,-31.01633 -4.9572,-11.91471 -4.9642,-21.58485 -0.05,-33.49678 4.9138,-11.91185 30.9405,-31.028382 30.9405,-31.028382 1.1671,-1.172524 1.1641,-3.068839 0,-4.237414 -1.1722,-1.167629 -3.069,-1.165125 -4.2382,0.0043 0,0 -19.0417,26.079586 -30.9403,31.028426 -11.8993,4.94885 -21.6091,4.95491 -33.5022,0.05 -11.89331,-4.90465 -30.93905,-30.841078 -30.93905,-30.841078 -1.17267,-1.167973 -3.06992,-1.165125 -4.23909,0.0043 z" /></g></g></g></svg>
